<svg width="60" height="60" viewBox="0 0 60 60" fill="none" xmlns="http://www.w3.org/2000/svg">
<path d="M24.5596 10.8379C26.5484 5.8742 33.7092 5.95443 35.5312 11.0781L35.5889 11.2256C36.216 12.7264 37.9804 13.4164 39.4688 12.709L39.7031 12.6025C44.5409 10.5332 49.4668 15.4591 47.3975 20.2969L47.291 20.5312C46.5608 22.0676 47.3193 23.8987 48.9219 24.4688L49.1621 24.5596C54.0471 26.5168 54.0471 33.4832 49.1621 35.4404L48.9219 35.5312C47.3193 36.1013 46.5608 37.9324 47.291 39.4688L47.3975 39.7031C49.4668 44.5409 44.5409 49.4668 39.7031 47.3975L39.4688 47.291C37.9804 46.5836 36.216 47.2736 35.5889 48.7744L35.5312 48.9219C33.7092 54.0456 26.5484 54.1258 24.5596 49.1621L24.4688 48.9219C23.9164 47.3692 22.1805 46.6093 20.6758 47.2275L20.5312 47.291C15.542 49.6627 10.3373 44.458 12.709 39.4688L12.7725 39.3242C13.3708 37.868 12.6782 36.1958 11.2256 35.5889L11.0781 35.5312C5.87316 33.6803 5.87316 26.3197 11.0781 24.4688L11.2256 24.4111C12.6782 23.8042 13.3708 22.132 12.7725 20.6758L12.709 20.5312C10.3373 15.542 15.542 10.3373 20.5312 12.709L20.6758 12.7725C22.1805 13.3907 23.9164 12.6308 24.4688 11.0781L24.5596 10.8379Z" fill="#1A4862" stroke="white" stroke-width="3"/>
<path d="M23 31.5C23 31.5 24.5 31.5 26.5 35C26.5 35 32.0588 25.8333 37 24" stroke="white" stroke-width="1.5" stroke-linecap="round" stroke-linejoin="round"/>
</svg>
