<svg width="53" height="54" viewBox="0 0 53 54" fill="none" xmlns="http://www.w3.org/2000/svg">
<path d="M20.9133 14.3048H13.205V6.70582H15.3069V2.55884H1.28662V6.70582H3.38955V18.4507C3.38955 21.5041 5.90045 23.9782 8.99702 23.9782H20.9133V26.0517H25.1202V12.2334H20.9133V14.3048ZM49.6519 31.5782V19.8334C49.6519 16.781 47.1421 14.3058 44.0487 14.3058H32.1303V12.2344H27.9234V26.0538H32.1303V23.9793H39.8397V31.5782H37.7399V35.7252H51.757V31.5782H49.6519Z" fill="#F3CD4C"/>
<path d="M26.8831 29C26.8831 29 30.7083 34.8598 30.7083 36.9564C30.7083 39.0489 28.9828 40.7459 26.8547 40.7459C24.7265 40.7459 23 39.0489 23 36.9564C23 34.8598 26.8831 29 26.8831 29Z" fill="#F3CD4C"/>
</svg>
