<svg width="44" height="44" viewBox="0 0 44 44" fill="none" xmlns="http://www.w3.org/2000/svg">
<path fill-rule="evenodd" clip-rule="evenodd" d="M3.20325 40.4948C6.37958 43.6668 11.4842 43.6668 21.6979 43.6668C31.9116 43.6668 37.0184 43.6668 40.1904 40.4927C43.3646 37.3228 43.3646 32.2138 43.3646 22.0002C43.3646 11.7865 43.3646 6.67966 40.1904 3.5055C37.0206 0.333496 31.9116 0.333496 21.6979 0.333496C11.4842 0.333496 6.37742 0.333496 3.20325 3.5055C0.03125 6.68183 0.03125 11.7865 0.03125 22.0002C0.03125 32.2138 0.03125 37.3228 3.20325 40.4948ZM36.3229 30.6668C36.3229 31.0978 36.1517 31.5111 35.847 31.8159C35.5422 32.1206 35.1289 32.2918 34.6979 32.2918H21.6979H8.69792C8.26694 32.2918 7.85361 32.1206 7.54887 31.8159C7.24412 31.5111 7.07292 31.0978 7.07292 30.6668C7.07292 30.2359 7.24412 29.8225 7.54887 29.5178C7.85361 29.213 8.26694 29.0418 8.69792 29.0418H34.6979C35.1289 29.0418 35.5422 29.213 35.847 29.5178C36.1517 29.8225 36.3229 30.2359 36.3229 30.6668ZM34.6979 23.6252C35.1289 23.6252 35.5422 23.454 35.847 23.1492C36.1517 22.8445 36.3229 22.4311 36.3229 22.0002C36.3229 21.5692 36.1517 21.1559 35.847 20.8511C35.5422 20.5464 35.1289 20.3752 34.6979 20.3752H8.69792C8.26694 20.3752 7.85361 20.5464 7.54887 20.8511C7.24412 21.1559 7.07292 21.5692 7.07292 22.0002C7.07292 22.4311 7.24412 22.8445 7.54887 23.1492C7.85361 23.454 8.26694 23.6252 8.69792 23.6252H34.6979ZM36.3229 13.3335C36.3229 13.7645 36.1517 14.1778 35.847 14.4825C35.5422 14.7873 35.1289 14.9585 34.6979 14.9585H8.69792C8.26694 14.9585 7.85361 14.7873 7.54887 14.4825C7.24412 14.1778 7.07292 13.7645 7.07292 13.3335C7.07292 12.9025 7.24412 12.4892 7.54887 12.1844C7.85361 11.8797 8.26694 11.7085 8.69792 11.7085H34.6979C35.1289 11.7085 35.5422 11.8797 35.847 12.1844C36.1517 12.4892 36.3229 12.9025 36.3229 13.3335Z" fill="#FACC15"/>
<path d="M36.3229 13.3335C36.3229 13.7645 36.1517 14.1778 35.847 14.4825C35.5422 14.7873 35.1289 14.9585 34.6979 14.9585H8.69792C8.26694 14.9585 7.85361 14.7873 7.54887 14.4825C7.24412 14.1778 7.07292 13.7645 7.07292 13.3335C7.07292 12.9025 7.24412 12.4892 7.54887 12.1844C7.85361 11.8797 8.26694 11.7085 8.69792 11.7085H34.6979C35.1289 11.7085 35.5422 11.8797 35.847 12.1844C36.1517 12.4892 36.3229 12.9025 36.3229 13.3335Z" fill="#1A4862"/>
<path d="M34.6979 23.6252C35.1289 23.6252 35.5422 23.454 35.847 23.1492C36.1517 22.8445 36.3229 22.4311 36.3229 22.0002C36.3229 21.5692 36.1517 21.1559 35.847 20.8511C35.5422 20.5464 35.1289 20.3752 34.6979 20.3752H8.69792C8.26694 20.3752 7.85361 20.5464 7.54887 20.8511C7.24412 21.1559 7.07292 21.5692 7.07292 22.0002C7.07292 22.4311 7.24412 22.8445 7.54887 23.1492C7.85361 23.454 8.26694 23.6252 8.69792 23.6252H34.6979Z" fill="#1A4862"/>
<path d="M36.3229 30.6668C36.3229 31.0978 36.1517 31.5111 35.847 31.8159C35.5422 32.1206 35.1289 32.2918 34.6979 32.2918H21.6979H8.69792C8.26694 32.2918 7.85361 32.1206 7.54887 31.8159C7.24412 31.5111 7.07292 31.0978 7.07292 30.6668C7.07292 30.2359 7.24412 29.8225 7.54887 29.5178C7.85361 29.213 8.26694 29.0418 8.69792 29.0418H34.6979C35.1289 29.0418 35.5422 29.213 35.847 29.5178C36.1517 29.8225 36.3229 30.2359 36.3229 30.6668Z" fill="#1A4862"/>
</svg>
