<svg width="30" height="30" viewBox="0 0 30 30" fill="none" xmlns="http://www.w3.org/2000/svg">
<g clip-path="url(#clip0_2615_4037)">
<path d="M24.2955 8.30782C23.6415 7.73808 23.266 6.91314 23.266 6.04575V2.71837C23.266 1.67016 22.4163 0.82041 21.3681 0.82041H20.4849C19.9244 0.82041 19.4701 1.27473 19.4701 1.83516C19.4701 2.70677 18.4437 3.1728 17.7875 2.59916L16.3028 1.30126C15.5883 0.676697 14.5236 0.671355 13.8029 1.28872L1.54335 11.7904C0.831012 12.4006 0.768869 13.4807 1.40653 14.1685L1.86224 14.6601C2.21317 15.0387 2.80093 15.0712 3.19149 14.7337C3.81228 14.1972 4.77624 14.6382 4.77624 15.4587V26.7657C4.77624 28.4226 6.11939 29.7657 7.77624 29.7657H22.2252C23.8821 29.7657 25.2252 28.4226 25.2252 26.7657V15.5793C25.2252 14.7644 26.1857 14.3297 26.798 14.8674C27.1766 15.2 27.7493 15.178 28.1013 14.8174L28.5667 14.3406C29.2289 13.6623 29.1846 12.5668 28.4698 11.9442L24.2955 8.30782ZM19.7015 20.1376L17.0256 22.6802C15.8543 23.7931 14.0119 23.7785 12.8584 22.6471L10.2999 20.1376C9.57134 19.5247 9.19297 18.6552 9.19297 17.7845C9.19297 17.0685 9.44889 16.3501 9.9791 15.7735C11.1485 14.502 13.2105 14.3485 14.5391 15.4665C14.8066 15.6892 15.1949 15.6892 15.4624 15.4665C16.0734 14.9591 16.824 14.7142 17.5722 14.7142C18.4795 14.7142 19.3807 15.0763 20.0224 15.7735C21.1954 17.0708 21.0301 19.0196 19.7015 20.1376Z" fill="#1A4862"/>
</g>
<defs>
<clipPath id="clip0_2615_4037">
<rect width="30" height="30" fill="white"/>
</clipPath>
</defs>
</svg>
