<svg width="30" height="30" viewBox="0 0 30 30" fill="none" xmlns="http://www.w3.org/2000/svg">
<g clip-path="url(#clip0_2615_4057)">
<path d="M29.5964 11.6666C28.0839 11.6734 22.5646 11.9874 18.4589 15.9895C17.4731 16.8714 16.7064 17.822 16.1035 18.7816C15.6292 19.5364 14.3709 19.5364 13.8966 18.7816C13.2936 17.822 12.5269 16.8714 11.5412 15.9895C7.43543 11.9874 1.91616 11.6734 0.403664 11.6666C0.173977 11.6656 -0.00206503 11.8437 1.82998e-05 12.0739C0.0119975 13.5281 0.371893 18.6437 4.62346 22.4541C8.9995 26.7156 13.3334 26.6666 15 26.6666C16.6667 26.6666 20.9995 26.7161 25.3766 22.4541C29.6287 18.6432 29.988 13.5281 30 12.0739C30.0021 11.8437 29.8261 11.6656 29.5964 11.6666ZM14.1127 16.2555C14.5659 16.7962 15.4314 16.7957 15.8843 16.2548C16.3225 15.7314 16.7937 15.2441 17.2953 14.7958C18.0933 14.0179 18.9382 13.3715 19.7975 12.8267C20.1702 12.5904 20.3677 12.1477 20.2518 11.7219C19.3331 8.34642 17.5855 5.37843 15.3959 3.47285C15.1818 3.28639 14.8219 3.28639 14.6073 3.47285C12.4188 5.37678 10.6715 8.34155 9.75138 11.7137C9.63516 12.1397 9.83268 12.5827 10.2054 12.8193C11.0475 13.354 11.8738 13.987 12.6531 14.7468C13.1754 15.2148 13.6631 15.719 14.1127 16.2555Z" fill="#1A4862"/>
</g>
<defs>
<clipPath id="clip0_2615_4057">
<rect width="30" height="30" fill="white"/>
</clipPath>
</defs>
</svg>
