<svg width="30" height="30" viewBox="0 0 30 30" fill="none" xmlns="http://www.w3.org/2000/svg">
<g clip-path="url(#clip0_2615_4082)">
<path d="M29.2241 4.38384H25.5865L21.4408 0.238051C21.1234 -0.0793504 20.6089 -0.0793504 20.2916 0.238051L16.1459 4.38373H12.5082C12.0916 4.38373 11.7539 4.72146 11.7539 5.13806V10.7987L12.5931 10.2777C13.1938 9.90477 13.9213 9.85707 14.5505 10.1139L17.3618 7.89718C17.7848 7.56366 18.398 7.63632 18.7313 8.05913C19.0648 8.482 18.9922 9.09518 18.5693 9.42858L15.8289 11.5895C16.0505 12.4758 15.6901 13.4408 14.8723 13.9486L13.2626 14.948L11.754 15.8848V17.5263C11.754 17.9429 12.0917 18.2806 12.5083 18.2806H29.2241C29.6407 18.2806 29.9784 17.9429 29.9784 17.5263V5.13818C29.9784 4.72158 29.6407 4.38384 29.2241 4.38384ZM18.4442 4.38384L20.8662 1.96188L23.2882 4.38384H18.4442Z" fill="#1A4862"/>
<path d="M14.6496 11.5434C14.3348 11.0365 13.6688 10.8808 13.162 11.1955L10.9743 12.5538C10.9652 10.7395 10.97 11.7026 10.9642 10.5339C10.9572 9.13147 9.81036 7.99048 8.40787 7.99048H7.3451C7.07486 8.69132 6.39348 10.4585 6.18945 10.9877L8.35162 11.9802V10.5425C8.35162 10.4176 8.45281 10.3164 8.57773 10.3164C8.70265 10.3164 8.80384 10.4175 8.80384 10.5425C8.80384 10.5432 8.80384 10.544 8.80384 10.5448L8.82769 14.5797C8.89501 15.3888 9.7939 15.8297 10.4736 15.4076L14.3017 13.0308C14.8085 12.7162 14.9643 12.0503 14.6496 11.5434Z" fill="#1A4862"/>
<path d="M2.63086 16.8887L2.63139 28.7037C2.63139 29.4197 3.2117 30 3.92765 30C4.64361 30 5.22392 29.4197 5.22392 28.7037V18.3426H5.71628C5.61246 18.3084 2.63086 16.8887 2.63086 16.8887Z" fill="#1A4862"/>
<path d="M8.35224 15.536L7.40179 17.6063C7.12265 18.2143 6.435 18.5412 5.7832 18.363V28.7037C5.7832 29.4197 6.36351 30 7.07947 30C7.79543 30 8.37574 29.4197 8.37574 28.7037C8.37456 28.0504 8.35224 16.2562 8.35224 15.536Z" fill="#1A4862"/>
<path d="M6.23801 9.74818L5.7988 8.94943L6.18844 8.24068C6.24651 8.13504 6.16999 8.00537 6.04928 8.00537H4.97872C4.85819 8.00537 4.78143 8.13492 4.83956 8.24068L5.23009 8.95084L4.79011 9.75105C4.73901 9.84404 4.72237 9.95191 4.743 10.0559L4.89698 10.8315C5.358 10.6639 5.70399 10.7646 6.09592 10.9445L6.28401 10.0587C6.30639 9.95308 6.29004 9.84281 6.23801 9.74818Z" fill="#1A4862"/>
<path d="M8.09333 12.7911L5.59097 11.6423C5.32156 11.5187 5.00328 11.637 4.87976 11.906L4.23242 13.3162L5.55043 14.0484C6.49197 14.5716 6.83117 15.7588 6.30804 16.7004C6.14574 16.9926 5.91892 17.226 5.65572 17.3945L5.92367 17.5175C6.19308 17.6411 6.51136 17.5228 6.63488 17.2538L8.357 13.5022C8.48058 13.233 8.36251 12.9147 8.09333 12.7911Z" fill="#1A4862"/>
<path d="M5.50437 7.27705C6.7408 7.27705 7.74312 6.27473 7.74312 5.03831C7.74312 3.80188 6.7408 2.79956 5.50437 2.79956C4.26795 2.79956 3.26562 3.80188 3.26562 5.03831C3.26562 6.27473 4.26795 7.27705 5.50437 7.27705Z" fill="#1A4862"/>
<path d="M5.12694 14.8087L2.18584 13.1747C2.19187 12.1912 2.19638 11.4675 2.20201 10.5448V10.5446C2.20265 10.4265 2.29881 10.3312 2.41693 10.3315C2.53506 10.3318 2.63062 10.4277 2.63062 10.5459V12.4265L3.4906 12.9043L4.11087 11.5532C4.25144 11.2469 4.4973 11.0086 4.79355 10.8732C4.67232 10.5587 3.8039 8.30653 3.68203 7.99048H2.59793C1.19537 7.99048 0.0486929 9.13153 0.0416617 10.5327C0.038732 11.0057 0.0244351 13.3295 0.0215055 13.8014C0.0190445 14.1961 0.232091 14.5606 0.57709 14.7523L4.07771 16.6972C4.59913 16.987 5.25685 16.7992 5.54659 16.2776C5.83628 15.7562 5.64843 15.0985 5.12694 14.8087Z" fill="#1A4862"/>
</g>
<defs>
<clipPath id="clip0_2615_4082">
<rect width="30" height="30" fill="white"/>
</clipPath>
</defs>
</svg>
