<svg width="53" height="53" viewBox="0 0 53 53" fill="none" xmlns="http://www.w3.org/2000/svg">
<path d="M10.7501 17.9431C11.9806 17.943 13.1893 17.6191 14.2549 17.0039C15.3205 16.3887 16.2054 15.5038 16.8206 14.4382H42.2941C43.2237 14.4382 44.1152 14.0689 44.7724 13.4116C45.4297 12.7543 45.799 11.8628 45.799 10.9333C45.799 10.0037 45.4297 9.11226 44.7724 8.45496C44.1152 7.79767 43.2237 7.42841 42.2941 7.42841H16.8206C16.2053 6.36287 15.3205 5.47805 14.2549 4.86287C13.1893 4.24769 11.9806 3.92383 10.7501 3.92383C9.51974 3.92383 8.311 4.24769 7.24542 4.86287C6.17984 5.47805 5.29495 6.36287 4.67969 7.42841H10.7501V14.4382H4.67969C5.29491 15.5038 6.17978 16.3887 7.24536 17.0039C8.31095 17.6191 9.51971 17.943 10.7501 17.9431ZM7.75698 33.2033C7.42938 33.5318 7.24536 33.9767 7.24526 34.4406V47.7346C7.24526 48.1994 7.4299 48.6451 7.75854 48.9738C8.08719 49.3024 8.53293 49.487 8.99771 49.487H14.255C14.7198 49.487 15.1656 49.3024 15.4942 48.9738C15.8228 48.6451 16.0075 48.1994 16.0075 47.7346V45.9821H37.0368V47.7346C37.0368 48.1994 37.2214 48.6451 37.5501 48.9738C37.8787 49.3024 38.3245 49.487 38.7892 49.487H44.0466C44.5113 49.487 44.9571 49.3024 45.2857 48.9738C45.6144 48.6451 45.799 48.1994 45.799 47.7346V34.4406C45.7989 33.9767 45.6149 33.5318 45.2873 33.2033L42.2941 30.2102L37.5485 22.2996C37.3925 22.0393 37.1716 21.824 36.9075 21.6747C36.6433 21.5254 36.3449 21.4473 36.0414 21.4479H17.0029C16.7 21.4479 16.4023 21.5263 16.1388 21.6756C15.8753 21.8248 15.6549 22.0398 15.4993 22.2996L10.7501 30.2102L7.75698 33.2033ZM39.2589 31.9626H13.7854L17.9912 24.9528H35.053L39.2589 31.9626ZM19.5124 38.3695V39.6734C19.5124 39.9522 19.4016 40.2197 19.2044 40.4169C19.0072 40.614 18.7398 40.7248 18.4609 40.7248H11.8016C11.5227 40.7248 11.2553 40.614 11.0581 40.4169C10.8609 40.2197 10.7501 39.9522 10.7501 39.6734V36.7503C10.7502 36.5947 10.7848 36.4411 10.8514 36.3005C10.9181 36.1599 11.0151 36.0359 11.1354 35.9373C11.2558 35.8387 11.3965 35.7681 11.5475 35.7305C11.6984 35.6929 11.8559 35.6892 12.0084 35.7198L18.3873 36.9956C18.7046 37.0595 18.99 37.2313 19.1951 37.4817C19.4002 37.7322 19.5123 38.0458 19.5124 38.3695ZM42.2941 37.1779V39.6734C42.2941 39.9522 42.1833 40.2197 41.9862 40.4169C41.789 40.614 41.5215 40.7248 41.2427 40.7248H34.5834C34.3045 40.7248 34.0371 40.614 33.8399 40.4169C33.6427 40.2197 33.5319 39.9522 33.5319 39.6734V38.0821C33.532 37.8392 33.6162 37.6039 33.7702 37.416C33.9242 37.2282 34.1384 37.0995 34.3766 37.0517L40.6153 35.804C40.8187 35.763 41.0288 35.7677 41.2302 35.8177C41.4316 35.8678 41.6194 35.9619 41.7801 36.0933C41.9407 36.2248 42.0701 36.3903 42.159 36.5778C42.2479 36.7654 42.2941 36.9703 42.2941 37.1779Z" fill="#F3CD4C"/>
</svg>
