<svg width="53" height="53" viewBox="0 0 53 53" fill="none" xmlns="http://www.w3.org/2000/svg">
<path d="M26.522 33.277C16.8397 33.277 8.99756 37.1981 8.99756 42.0392V46.4203H44.0464V42.0392C44.0464 37.1981 36.2042 33.277 26.522 33.277ZM17.7598 20.1337C17.7598 22.4576 18.6829 24.6863 20.3262 26.3295C21.9694 27.9727 24.1981 28.8959 26.522 28.8959C28.8459 28.8959 31.0746 27.9727 32.7178 26.3295C34.361 24.6863 35.2842 22.4576 35.2842 20.1337M25.4267 4.7998C24.7695 4.7998 24.3314 5.25982 24.3314 5.89508V12.4667H22.1409V6.99036C22.1409 6.99036 17.2121 8.87423 17.2121 15.2049C17.2121 15.2049 15.5692 15.5116 15.5692 17.9431H37.4748C37.3652 15.5116 35.8318 15.2049 35.8318 15.2049C35.8318 8.87423 30.9031 6.99036 30.9031 6.99036V12.4667H28.7125V5.89508C28.7125 5.25982 28.2963 4.7998 27.6173 4.7998H25.4267Z" fill="#F3CD4C"/>
</svg>
