<svg width="53" height="54" viewBox="0 0 53 54" fill="none" xmlns="http://www.w3.org/2000/svg">
<path d="M37.4748 4.83691C39.151 4.83682 40.7639 5.47727 41.9835 6.62722C43.2031 7.77717 43.9371 9.34969 44.0355 11.023L44.0464 11.4086C45.7893 11.4086 47.4609 12.1009 48.6933 13.3334C49.9257 14.5658 50.6181 16.2373 50.6181 17.9802C50.6182 21.3808 49.3003 24.6491 46.9413 27.0984C44.5823 29.5476 41.3658 30.9873 37.9676 31.1148L37.4748 31.1236H28.7125L29.0411 31.1345C30.0842 31.2129 31.0648 31.6619 31.8057 32.4003C32.5465 33.1388 32.9987 34.1179 33.0805 35.1607L33.0936 35.5047V44.2669C33.094 45.3722 32.6766 46.4368 31.925 47.2472C31.1734 48.0577 30.1433 48.5541 29.0411 48.637L28.7125 48.648H24.3314C23.2261 48.6483 22.1615 48.2309 21.3511 47.4793C20.5406 46.7278 20.0442 45.6976 19.9613 44.5955L19.9503 44.2669V35.5047C19.95 34.3994 20.3674 33.3348 21.119 32.5243C21.8705 31.7138 22.9007 31.2174 24.0029 31.1345L24.3314 31.1236V28.933C24.3315 28.3965 24.5285 27.8786 24.885 27.4777C25.2416 27.0767 25.7328 26.8206 26.2657 26.7578L26.522 26.7424H37.4748C39.7986 26.7424 42.0273 25.8193 43.6706 24.1761C45.3138 22.5328 46.237 20.3041 46.237 17.9802C46.2369 17.4437 46.0399 16.9258 45.6834 16.5249C45.3268 16.1239 44.8356 15.8678 44.3027 15.805L44.0464 15.7897L44.0355 16.1752C43.9411 17.7822 43.2602 19.2986 42.122 20.4369C40.9837 21.5751 39.4673 22.256 37.8603 22.3504L37.4748 22.3613H15.5692C13.893 22.3614 12.2801 21.721 11.0605 20.571C9.84091 19.4211 9.10685 17.8486 9.00851 16.1752L8.99756 15.7897V11.4086C8.99747 9.73234 9.63791 8.11943 10.7879 6.89984C11.9378 5.68026 13.5103 4.94621 15.1837 4.84787L15.5692 4.83691H37.4748Z" fill="#F3CD4C"/>
</svg>
