<svg width="30" height="30" viewBox="0 0 30 30" fill="none" xmlns="http://www.w3.org/2000/svg">
<path d="M26.7835 26.2614C26.9909 26.2614 27.1871 26.1679 27.3178 26.0067C27.4484 25.8456 27.4993 25.6342 27.4565 25.4313L27.0233 23.3814C27.27 23.1427 27.4251 22.8095 27.4251 22.4391C27.4251 22.0491 27.2514 21.7031 26.9818 21.4628V14.3442L25.2453 15.4188V21.4628C24.9757 21.7031 24.802 22.0491 24.802 22.4391C24.802 22.8096 24.9571 23.1428 25.2038 23.3814L24.7706 25.4313C24.7277 25.6342 24.7787 25.8456 24.9093 26.0067C25.0399 26.1678 25.2362 26.2614 25.4436 26.2614H26.7835ZM27.372 10.1902L16.0757 3.19744C15.7448 2.99366 15.3719 2.89136 14.9989 2.89136C14.626 2.89136 14.2528 2.99357 13.9239 3.19744L2.62742 10.1902C2.32578 10.3769 2.14258 10.7065 2.14258 11.0613C2.14258 11.4162 2.32578 11.7459 2.62742 11.9329L13.9239 18.9257C14.2527 19.1297 14.6259 19.2318 14.9989 19.2318C15.3718 19.2318 15.7448 19.1296 16.0756 18.9257L27.372 11.9329C27.6737 11.746 27.8569 11.4162 27.8569 11.0613C27.8569 10.7065 27.6737 10.3768 27.372 10.1902ZM14.9989 20.9681C14.2952 20.9681 13.6084 20.7727 13.0098 20.4022L6.4205 16.3229V23.3471C6.4205 25.426 10.263 27.1089 14.9989 27.1089C19.7365 27.1089 23.5786 25.4259 23.5786 23.3471V16.3229L16.9896 20.4022C16.391 20.7727 15.7026 20.9681 14.9989 20.9681Z" fill="#1A4862"/>
</svg>
