<svg width="30" height="30" viewBox="0 0 30 30" fill="none" xmlns="http://www.w3.org/2000/svg">
<path d="M13.459 17.17C13.624 17.3346 13.8984 17.3066 14.0908 17.1417L15.0117 16.2198L16.0234 17.2315L12.7705 20.4972L13.4863 23.1368C13.5413 23.3568 13.4862 23.6046 13.3213 23.7696L10.1308 26.9591C9.96583 27.1241 9.71801 27.1791 9.49801 27.1241L7.24313 26.5196L9.80075 23.962C9.96575 23.797 10.0208 23.5492 9.96579 23.3292L9.49801 21.5694C9.44301 21.3495 9.25111 21.1567 9.03122 21.1017L7.27047 20.6349C7.0507 20.58 6.80356 20.6343 6.63864 20.7989L4.08102 23.3565L3.47555 21.129C3.42078 20.9093 3.47595 20.6621 3.64059 20.4972L6.83102 17.3067C6.99602 17.1418 7.24388 17.0867 7.46383 17.1417L10.1035 17.8565L12.124 15.8351L13.459 17.17ZM25.0088 23.797L26.081 24.2091L26.9609 25.7765L25.7783 26.9591L24.2382 26.1065L23.8261 25.0343L16.0234 17.2315L17.2314 16.0196L25.0088 23.797ZM16.2216 15.0099L15.0117 16.2198L14.2558 15.464L15.4658 14.254L16.2216 15.0099ZM20.498 3.63975C20.663 3.47476 20.9108 3.41973 21.1308 3.47471L23.3857 4.07921L20.8281 6.63682C20.6632 6.80182 20.6081 7.0497 20.6631 7.26964L21.1308 9.0294C21.1858 9.2494 21.3786 9.44217 21.5986 9.49717L23.3584 9.96397C23.5784 10.019 23.8262 9.96393 23.9912 9.79893L26.5488 7.24229L27.1533 9.49717C27.2082 9.71708 27.1531 9.96407 26.9882 10.129L23.7705 13.2921C23.6055 13.4568 23.3584 13.512 23.1386 13.4571L20.498 12.7423L17.2314 16.0196L16.2216 15.0099L17.1435 14.0899C17.336 13.8974 17.3359 13.6221 17.1709 13.4571L15.8369 12.1232L17.831 10.129L17.1435 7.46202C17.0885 7.24202 17.1436 6.99421 17.3086 6.82921L20.498 3.63975ZM6.83102 3.77745C7.02347 3.61249 7.29882 3.58427 7.46383 3.74913L14.1738 10.4601C14.3383 10.625 14.3112 10.8995 14.1191 11.0919C13.9541 11.2844 13.9259 11.5597 14.0908 11.7247L14.2832 11.8898C14.4481 12.0547 14.7235 12.0547 14.916 11.8624C15.1085 11.6974 15.3838 11.6701 15.5488 11.8351L15.8369 12.1232L12.124 15.8351L11.8359 15.547C11.6711 15.382 11.6708 15.1066 11.8632 14.9142C12.0281 14.7218 12.0562 14.4474 11.8916 14.2823L11.7265 14.1173C11.5615 13.9523 11.2862 13.9522 11.0937 14.1446C10.9012 14.3096 10.6259 14.337 10.4609 14.172L3.75094 7.46202C3.58607 7.297 3.58584 7.02166 3.77829 6.82921L6.83102 3.77745Z" fill="#1A4862"/>
</svg>
