<svg width="30" height="30" viewBox="0 0 30 30" fill="none" xmlns="http://www.w3.org/2000/svg">
<g clip-path="url(#clip0_2615_4067)">
<path d="M8.0528 0.0467916C7.38403 0.220229 6.95004 0.792104 7.00695 1.4296C7.06624 2.11867 7.62118 2.62492 8.32316 2.6296C8.71446 2.63195 9.00379 2.51476 9.28363 2.2382C9.60853 1.91945 9.73185 1.50695 9.63936 1.06632C9.53027 0.555385 9.16031 0.192104 8.603 0.0467916C8.38482 -0.00945854 8.27336 -0.00945854 8.0528 0.0467916Z" fill="#1A4862"/>
<path d="M15.3195 0.0609374C14.9922 0.128906 14.6341 0.377344 14.4752 0.644531C14.2997 0.942187 14.2404 1.28906 14.3092 1.60078C14.3685 1.86562 14.4704 2.04844 14.6649 2.23828C14.9376 2.50547 15.2222 2.625 15.5922 2.625C15.9621 2.625 16.2491 2.50547 16.5171 2.23828C16.6096 2.14922 16.7139 2.02031 16.7495 1.95234C16.8325 1.79766 16.9084 1.50469 16.9084 1.33828C16.906 0.724219 16.4602 0.185156 15.8531 0.0585938C15.6515 0.0164061 15.521 0.0164061 15.3195 0.0609374Z" fill="#1A4862"/>
<path d="M6.64582 3.1407C6.12408 3.27664 5.67348 3.68445 5.45767 4.21414C5.41736 4.31492 5.13277 5.25945 4.82684 6.31414C4.40945 7.75086 4.26953 8.26648 4.26953 8.36023C4.26953 8.64617 4.50669 8.85945 4.82684 8.85945C5.08297 8.85945 5.25609 8.73523 5.33435 8.49851C5.36044 8.41882 5.59048 7.63367 5.84661 6.75007C6.10273 5.86648 6.32803 5.09539 6.347 5.03211L6.38495 4.92195H6.64344C6.89483 4.92195 6.90194 4.92429 6.90194 4.97351C6.90194 5.00398 6.56756 6.39382 6.15728 8.06257C5.74937 9.73132 5.41973 11.1048 5.42447 11.1141C5.42922 11.1259 5.72803 11.1329 6.08376 11.1329H6.73593L6.74068 13.411L6.74779 15.6915L6.80471 15.8157C6.90669 16.0407 7.15333 16.1954 7.40234 16.1954C7.55412 16.1954 7.74147 16.111 7.85056 15.9938C8.04265 15.7876 8.02842 15.9915 8.03554 13.4227L8.04028 11.1329H8.33673H8.63317L8.63791 13.411L8.64503 15.6915L8.70194 15.8157C8.80155 16.0313 9.04582 16.1954 9.27348 16.1954C9.51301 16.1954 9.76439 16.0407 9.87111 15.8251L9.92566 15.7149L9.93277 13.4227L9.93752 11.1329H10.5778C10.9288 11.1329 11.2205 11.1235 11.2276 11.1141C11.2347 11.1048 10.9051 9.71961 10.4972 8.03679C10.0893 6.35632 9.75965 4.96648 9.76677 4.95007C9.77388 4.93132 9.8474 4.92195 10.0205 4.92195C10.1865 4.92195 10.2719 4.93132 10.2861 4.95007C10.3004 4.96648 10.5423 5.78211 10.8245 6.76179C11.2087 8.08601 11.3557 8.56648 11.4031 8.63679C11.543 8.84304 11.8608 8.91804 12.1075 8.8032C12.3304 8.70242 12.3138 8.74695 12.8593 6.86961C13.1296 5.93445 13.3691 5.11179 13.3881 5.04382L13.4261 4.91961L13.668 4.92664L13.9098 4.93367L13.9217 10.2657L13.9336 15.5977L13.9952 15.729C14.0687 15.8837 14.2087 16.0313 14.3533 16.104C14.4292 16.1438 14.5098 16.1602 14.6616 16.1673C14.8419 16.1766 14.8798 16.1696 14.9936 16.1204C15.1763 16.036 15.2853 15.9329 15.3731 15.7548L15.4514 15.5977L15.4632 12.5274L15.4751 9.45711H15.7715H16.068L16.0798 12.5391L16.0917 15.6212L16.1415 15.729C16.215 15.886 16.3478 16.0196 16.5114 16.1016C16.6324 16.1602 16.6846 16.1719 16.8292 16.1719C17.1589 16.1719 17.4102 16.0173 17.5454 15.7313L17.6095 15.5977L17.6166 10.2587L17.6213 4.92195H17.8822C18.1312 4.92195 18.1454 4.92429 18.1668 4.97351C18.1786 5.00398 18.4087 5.81726 18.6766 6.78523C18.9446 7.75086 19.1842 8.57351 19.2055 8.61101C19.298 8.7657 19.3786 8.80086 20.0521 8.98601C20.4055 9.08211 20.7565 9.18054 20.8347 9.20632L20.977 9.24851L20.9889 12.586C21.0031 16.2938 20.9865 15.9774 21.1597 16.1415C21.4181 16.3876 21.8189 16.3173 21.9921 15.9985C22.0442 15.9024 22.0442 15.8954 22.0561 14.2032L22.068 12.504L22.2648 12.4969C22.3905 12.4923 22.4759 12.4993 22.4972 12.518C22.5257 12.5415 22.5304 12.8087 22.5304 14.2032C22.5304 15.3798 22.5375 15.8837 22.5565 15.9399C22.6015 16.0712 22.6964 16.1743 22.8245 16.2329C23.0948 16.3571 23.3984 16.2563 23.5241 16.0009C23.5739 15.9001 23.5739 15.8954 23.5739 12.8415C23.5739 11.161 23.581 9.76179 23.5881 9.73132C23.6023 9.68211 23.6142 9.67976 23.8253 9.67976H24.0482V10.7274C24.0482 11.3649 24.0577 11.8102 24.0719 11.8641C24.1027 11.9696 24.2545 12.1102 24.366 12.129C24.411 12.1384 24.4822 12.1384 24.5225 12.129C24.6292 12.1055 24.7763 11.9673 24.8071 11.8641C24.8213 11.8102 24.8308 11.3087 24.8308 10.5469C24.8308 9.19226 24.8261 9.1407 24.6861 8.88054C24.5913 8.70711 24.3873 8.5032 24.2047 8.40242C23.9296 8.25007 23.9225 8.25007 22.4355 8.24773C21.3612 8.24773 21.0102 8.23836 20.664 8.20554C20.4245 8.18445 20.2205 8.15632 20.211 8.14461C20.1992 8.13054 19.9407 7.2657 19.6395 6.22273C19.1723 4.61023 19.0727 4.28914 18.9731 4.08992C18.7786 3.69382 18.5201 3.43132 18.1549 3.25554C17.8158 3.09148 17.8514 3.09382 15.7573 3.09382C13.9691 3.09382 13.8743 3.09617 13.6988 3.1407C13.3264 3.23445 12.9707 3.47351 12.7478 3.78289C12.5486 4.05945 12.4656 4.27507 12.1715 5.28992C12.0174 5.82195 11.8846 6.26492 11.8751 6.27195C11.8656 6.28132 11.8514 6.28132 11.8419 6.27429C11.8347 6.26492 11.6996 5.82195 11.5454 5.29226C11.2513 4.27507 11.1683 4.05945 10.9691 3.78289C10.7462 3.47351 10.3905 3.23445 10.0181 3.1407C9.84503 3.09617 9.75254 3.09382 8.32724 3.09617C6.92329 3.09617 6.80708 3.09851 6.64582 3.1407Z" fill="#1A4862"/>
<path d="M22.0247 5.95312C21.8801 5.99062 21.7022 6.09141 21.5931 6.19922C21.1449 6.63984 21.2848 7.38984 21.8658 7.66172C21.9797 7.71562 22.0271 7.72266 22.2334 7.72266C22.4445 7.72266 22.4872 7.71562 22.6152 7.65703C22.7907 7.57734 22.9757 7.39687 23.0682 7.21875C23.1275 7.10156 23.1346 7.06641 23.1346 6.84375C23.1346 6.61172 23.1299 6.58828 23.0563 6.44062C22.9591 6.24375 22.7718 6.07031 22.582 5.99766C22.4302 5.94141 22.1646 5.92031 22.0247 5.95312Z" fill="#1A4862"/>
<path d="M1.13834 9.29063C0.903557 9.35859 0.747036 9.44063 0.571542 9.58594C0.310672 9.79922 0.135178 10.0969 0.0474308 10.4672C0 10.6617 0 10.7719 0 14.8969C0 17.7727 0.00711463 19.1813 0.026087 19.2961C0.0972332 19.7813 0.125692 19.9313 0.180237 20.1445C0.334387 20.7445 0.647431 21.368 1.04585 21.8695C1.13123 21.975 5.11779 26.175 6.3249 27.4289C6.6498 27.7641 6.79921 27.982 6.88696 28.2422C6.96996 28.4953 6.99605 28.7648 6.99605 29.4188V30H9.79447H12.5929V28.4813C12.5929 26.6039 12.5715 26.3391 12.3913 25.7813C12.249 25.35 12.0119 24.9328 11.7036 24.5789C11.6229 24.4875 10.0482 22.9148 8.20791 21.0891L4.85692 17.7656L4.66482 17.6719C4.44427 17.5664 4.20949 17.5195 4.00791 17.543C3.12332 17.6414 2.63004 18.5531 3.04269 19.3219C3.083 19.3969 3.1921 19.5398 3.28459 19.6383C3.37708 19.7367 4.05534 20.4539 4.79289 21.2344C5.52806 22.0148 6.2087 22.7367 6.30356 22.8375C6.39842 22.9383 6.5502 23.1328 6.64269 23.2688C7.01502 23.8195 7.17866 24.2789 7.19289 24.8203L7.19763 25.0195H6.67589H6.15652L6.12806 24.7734C6.08775 24.4242 5.96917 24.1313 5.73439 23.8078C5.6917 23.7492 4.90909 22.8914 3.99605 21.9023C3.083 20.9133 2.28617 20.0391 2.22213 19.9594C2.07036 19.7648 1.93755 19.5047 1.85929 19.2539C1.8 19.0641 1.79526 19.0078 1.79526 18.6914C1.79526 18.3773 1.8 18.3188 1.85692 18.1336C2.03715 17.5523 2.44032 17.0648 2.96917 16.793L3.10672 16.7227V13.6688C3.10672 10.2844 3.11146 10.418 2.95257 10.0898C2.75099 9.67969 2.3668 9.375 1.91383 9.26953C1.69091 9.21797 1.35178 9.225 1.13834 9.29063Z" fill="#1A4862"/>
<path d="M28.0734 9.26953C27.5612 9.39375 27.1557 9.75937 26.9659 10.2727L26.9043 10.4414L26.8972 13.582L26.8924 16.7227L27.0276 16.793C27.5588 17.0648 27.962 17.5523 28.1422 18.1336C28.1991 18.3187 28.2039 18.3773 28.2039 18.6914C28.2039 19.0078 28.1991 19.0641 28.1398 19.2539C28.0616 19.5047 27.9288 19.7648 27.777 19.9594C27.713 20.0391 26.9161 20.9133 26.0031 21.9023C25.09 22.8914 24.2979 23.7609 24.2458 23.8383C24.0134 24.1641 23.8924 24.4758 23.8616 24.8203L23.845 25.0195H23.3232H22.8015L22.8063 24.825C22.8134 24.4453 22.913 24.0586 23.0956 23.7023C23.2331 23.4305 23.4987 23.0484 23.6956 22.8375C23.7904 22.7367 24.3857 22.1039 25.0189 21.4336C25.6521 20.7633 26.3304 20.0461 26.5272 19.8375C26.909 19.432 27.0086 19.282 27.0703 19.0289C27.2434 18.3 26.7335 17.6133 25.9675 17.5406C25.7612 17.5219 25.5146 17.5758 25.3011 17.6859C25.147 17.7656 24.8742 18.0328 21.7889 21.0914C19.9485 22.9172 18.3762 24.4875 18.2956 24.5789C17.781 25.1742 17.5059 25.8445 17.4323 26.6836C17.4181 26.8406 17.4062 27.6328 17.4062 28.4812V30H20.2047H23.0031V29.4187C23.0031 28.7531 23.0268 28.4953 23.1122 28.2445C23.2023 27.9797 23.3564 27.7547 23.6766 27.4242C24.5896 26.4797 28.8655 21.9797 28.9533 21.8695C29.3588 21.3586 29.6647 20.7445 29.8236 20.1141C29.9944 19.4437 29.9849 19.7555 29.992 14.9766C29.9991 10.7672 29.9991 10.6711 29.9541 10.4742C29.8118 9.8625 29.4181 9.44062 28.8323 9.28125C28.6284 9.225 28.2821 9.22031 28.0734 9.26953Z" fill="#1A4862"/>
</g>
<defs>
<clipPath id="clip0_2615_4067">
<rect width="30" height="30" fill="white"/>
</clipPath>
</defs>
</svg>
