<svg width="32" height="32" viewBox="0 0 32 32" fill="none" xmlns="http://www.w3.org/2000/svg">
<rect width="32" height="32" rx="16" fill="#3187B8"/>
<path d="M12.3467 22.8711L8.7959 23.4951C8.64209 23.5211 8.51166 23.4089 8.50098 23.2686L8.50391 23.207V23.2051L8.72559 21.9336L8.9082 22.1172L10.0635 23.2725L10.3203 23.2275L12.3359 22.874L12.3467 22.8711ZM20.4424 14.8506L12.749 22.5439V20.748H11.249V19.248H9.45508L17.1475 11.5557L20.4424 14.8506ZM17.5908 12.7705C17.2464 12.4892 16.7516 12.489 16.4072 12.7705L16.3359 12.835L11.5234 17.6475C11.1797 17.9915 11.1581 18.5326 11.459 18.9014L11.5234 18.9727C11.8677 19.317 12.4095 19.3385 12.7783 19.0371L12.8496 18.9727L17.6621 14.1602C18.0061 13.816 18.0277 13.275 17.7266 12.9062L17.6621 12.835L17.5908 12.7705ZM19.9121 8.79199C20.2765 8.42766 20.8571 8.40308 21.252 8.72363L21.3281 8.79297L23.2061 10.6709C23.5721 11.035 23.5965 11.6142 23.2744 12.0088L23.2051 12.085L21.8525 13.4375L18.5596 10.1445L19.9121 8.79199Z" fill="white" stroke="white"/>
</svg>
