<svg width="24" height="24" viewBox="0 0 24 24" fill="none" xmlns="http://www.w3.org/2000/svg">
<path d="M7 5.47559C9.97957 5.47559 12.5 7.63634 12.5 10.4199C12.4999 12.6813 10.8279 14.5346 8.61133 15.1465V15.8457H9.36133C9.80947 15.8458 10.2772 16.1824 10.2773 16.7158V17.9502C10.2773 18.4836 9.80964 18.8212 9.36133 18.8213H8.61133V19.4316C8.61133 19.9652 8.14271 20.3027 7.69434 20.3027H6.30566C5.85729 20.3027 5.38867 19.9652 5.38867 19.4316V18.8213H4.63867C4.19036 18.8212 3.72266 18.4836 3.72266 17.9502V16.7158C3.72282 16.1824 4.19053 15.8458 4.63867 15.8457H5.38867V15.1465C3.17156 14.5367 1.50008 12.6807 1.5 10.4199C1.5 7.63634 4.02043 5.47559 7 5.47559ZM21.583 3.5C22.0313 3.5 22.4999 3.83666 22.5 4.37012V6.80859C22.5 7.39022 21.9799 7.67863 21.5801 7.67871C21.394 7.67871 21.1973 7.62532 21.0273 7.50195L20.9561 7.44434L20.7012 7.21777L19.6592 8.14355C20.0516 8.82293 20.2773 9.59643 20.2773 10.4199C20.2772 13.2034 17.7568 15.3643 14.7773 15.3643C13.5063 15.3642 12.329 14.9785 11.3926 14.3193L10.9189 13.9863L11.3184 13.5664C11.7638 13.0974 12.1051 12.5574 12.3271 11.9707L12.5869 11.2842L13.1309 11.7783C13.5401 12.1495 14.1245 12.3886 14.7773 12.3887C16.0893 12.3887 17.0556 11.4511 17.0557 10.4199C17.0557 9.3887 16.0894 8.4502 14.7773 8.4502C14.1213 8.45031 13.5403 8.69005 13.1309 9.06152L12.5869 9.55469L12.3271 8.86816C12.1055 8.28275 11.7603 7.74312 11.3164 7.27246L10.9189 6.85059L11.3945 6.51855L11.5732 6.39941C12.4794 5.81777 13.5844 5.47567 14.7773 5.47559C15.7102 5.47559 16.5922 5.6839 17.3652 6.05469L18.3789 5.1543L18.2129 5.00684L18.21 5.00391V5.00293C17.9109 4.73283 17.8535 4.33709 18.002 4.01758C18.1465 3.70667 18.4662 3.50017 18.8398 3.5H21.583ZM7 8.4502C5.6879 8.4502 4.72266 9.38869 4.72266 10.4199C4.72276 11.4511 5.68797 12.3887 7 12.3887C8.31203 12.3887 9.27724 11.4511 9.27734 10.4199C9.27734 9.38869 8.3121 8.4502 7 8.4502Z" stroke="#656F83"/>
</svg>
