<svg width="24" height="24" viewBox="0 0 24 24" fill="none" xmlns="http://www.w3.org/2000/svg">
<circle cx="16.9253" cy="18.061" r="4.32467" fill="#1A4862" stroke="#1A4862" stroke-width="1.5"/>
<path d="M5.04883 1.44922C3.90524 1.83623 2.89804 2.84842 2.5 3.99219L2.42871 4.22266C2.36883 4.44431 2.31184 4.8713 2.26172 5.43945C2.21176 6.00586 2.1694 6.70816 2.13672 7.47656C2.0877 8.62912 2.06103 9.93017 2.06738 11.1465L2.08496 12.3262C2.15689 15.2259 2.26867 17.525 2.38184 18.6133L2.43066 19.0039C2.62184 20.2023 3.52885 21.4556 4.7041 22.1602L4.94238 22.2939C5.27199 22.4652 5.52549 22.5695 5.87305 22.6484C6.13546 22.708 6.45232 22.7536 6.89746 22.8008L7.3877 22.8486C8.59582 22.962 9.5437 23.0123 10.6182 23.0176L11.749 23.0088C12.4445 22.9958 13.3604 22.9633 14.1074 22.9287C14.4809 22.9114 14.812 22.8941 15.0518 22.8779C15.1085 22.8741 15.1604 22.8688 15.2061 22.8652C14.756 22.6983 14.1239 22.3148 13.6562 21.9258L13.4561 21.749L13.1592 21.4736L11.7031 21.5029C10.1571 21.5294 8.44483 21.4561 7.16016 21.3154L6.63672 21.251C6.25584 21.1984 5.94851 21.1152 5.66504 20.9727C5.45253 20.8657 5.25512 20.7267 5.05078 20.5459L4.84375 20.3506C4.5307 20.0419 4.30565 19.7471 4.14844 19.416C4.03055 19.1677 3.95192 18.9009 3.90137 18.5957L3.85938 18.2773C3.70391 16.7303 3.56894 12.5273 3.58105 10.0391L3.5957 9.09082C3.64112 7.497 3.69102 6.39448 3.75879 5.63379C3.82624 4.87672 3.91146 4.44721 4.03516 4.20898V4.20996C4.35877 3.57934 5.01254 3.02822 5.63965 2.8584L5.76465 2.8291C6.40246 2.70686 8.40494 2.56837 9.4834 2.56836C10.1583 2.56836 11.0459 2.61482 11.8223 2.67871C12.2106 2.71066 12.5718 2.7463 12.8652 2.78418C13.0837 2.81239 13.2676 2.84184 13.3975 2.87109L13.5088 2.90039C13.7413 2.97561 14.019 3.15459 14.2676 3.36816C14.5164 3.58197 14.7445 3.83711 14.875 4.07324L14.874 4.07422L14.9785 4.25977L15.0371 4.36426L14.917 4.3584L14.3809 4.33301H14.3799C12.1831 4.2158 10.7448 4.2011 8.97266 4.2832L8.18945 4.32422C7.3782 4.37181 6.90175 4.40479 6.59961 4.44336C6.37358 4.47221 6.24959 4.50384 6.1582 4.54395L6.0752 4.58691L6 4.63965C5.8333 4.77479 5.71777 4.99773 5.71777 5.1875C5.71785 5.29975 5.76213 5.4354 5.83496 5.56055C5.90755 5.68514 6.00472 5.79182 6.10449 5.85156C6.16736 5.88733 6.187 5.90424 6.22559 5.91699C6.26186 5.9289 6.31587 5.93606 6.43262 5.93555C6.55023 5.93501 6.72406 5.92701 6.99414 5.91016L8.13379 5.83398C10.1539 5.69754 12.8864 5.71705 14.9863 5.87207L15.8438 5.94727C16.1363 5.97589 16.3765 6.03192 16.5996 6.13477C16.7671 6.21195 16.9228 6.31468 17.083 6.44824L17.2451 6.5918C17.5984 6.92767 17.8084 7.17823 17.9395 7.58203C18.0362 7.88031 18.0894 8.26102 18.1328 8.82031L18.1738 9.44336C18.2474 10.6849 18.3037 12.1271 18.3037 12.7217V13.2188L18.5527 13.3027L18.5518 13.3037C18.8471 13.4007 19.4301 13.6793 19.7715 13.8936L19.7725 13.8926L19.8486 13.9395L19.8359 13.7461V13.7451L19.793 12.2686C19.7865 11.951 19.7735 11.5295 19.7578 11.1064L19.7061 9.93555C19.6038 8.04573 19.5413 7.51147 19.3174 6.9707L19.2109 6.73438V6.7334C18.8199 5.90751 18.0605 5.15298 17.2646 4.78223L17.1055 4.71289L17.1045 4.71191C17.0216 4.67699 16.9426 4.64478 16.877 4.61719C16.8151 4.59119 16.7618 4.56885 16.7422 4.55762L16.7432 4.55566C16.7266 4.5468 16.7147 4.53532 16.709 4.52832C16.7002 4.51754 16.6915 4.50464 16.6836 4.49121C16.6676 4.46412 16.6501 4.4284 16.6318 4.3877L16.5137 4.08496V4.08398C16.2455 3.27576 15.7788 2.61702 15.0977 2.08789L14.792 1.86914C14.1263 1.42914 13.5143 1.271 11.6084 1.15137L10.709 1.10156H10.708C10.0061 1.06599 9.47666 1.05752 8.79688 1.07715L8.05469 1.10645C7.35098 1.13883 6.70892 1.18826 6.1875 1.24805C5.66467 1.30801 5.26768 1.37803 5.0498 1.44922H5.04883Z" fill="#1A4862" stroke="#1A4862" stroke-width="0.133333"/>
<rect x="16.1523" y="18" width="1.5" height="3.1" rx="0.75" fill="white"/>
<rect x="16.1523" y="15.5" width="1.5" height="1.5" rx="0.75" fill="white"/>
<rect x="7.2373" y="7.45068" width="9.22668" height="1.84534" rx="0.922668" fill="#1A4862"/>
<rect x="7.2373" y="11.1411" width="6.45868" height="1.84534" rx="0.922668" fill="#1A4862"/>
</svg>
