<svg width="24" height="24" viewBox="0 0 24 24" fill="none" xmlns="http://www.w3.org/2000/svg">
<path d="M21.75 6.75001V7.37501C21.75 7.4613 21.7195 7.53496 21.6585 7.59598C21.5975 7.657 21.5238 7.68751 21.4375 7.68751H20.5V8.15626C20.5 8.41513 20.2901 8.62501 20.0312 8.62501H4.71875C4.45988 8.62501 4.25 8.41513 4.25 8.15626V7.68751H3.3125C3.2262 7.68751 3.15255 7.657 3.09153 7.59598C3.03051 7.53496 3 7.4613 3 7.37501V6.75001C3 6.68679 3.01757 6.62891 3.0527 6.57635C3.08783 6.5238 3.1346 6.48543 3.19301 6.46126L12.2555 3.02376C12.2938 3.00792 12.3336 3 12.375 3C12.4164 3 12.4562 3.00792 12.4945 3.02376L21.557 6.46126C21.6154 6.48543 21.6622 6.5238 21.6973 6.57635C21.7324 6.62891 21.75 6.6868 21.75 6.75001ZM20.8125 18.625H3.9375C3.41973 18.625 3 19.0447 3 19.5625V20.1875C3 20.2738 3.03051 20.3475 3.09153 20.4085C3.15255 20.4695 3.2262 20.5 3.3125 20.5H21.4375C21.5238 20.5 21.5975 20.4695 21.6585 20.4085C21.7195 20.3475 21.75 20.2738 21.75 20.1875V19.5625C21.75 19.0447 21.3303 18.625 20.8125 18.625ZM6.125 9.25001V16.75H4.71875C4.45988 16.75 4.25 16.9599 4.25 17.2188V18H20.5V17.2188C20.5 16.9599 20.2901 16.75 20.0312 16.75H18.625V9.25001H16.125V16.75H13.625V9.25001H11.125V16.75H8.625V9.25001H6.125Z" stroke="#656F83"/>
</svg>
