<svg width="24" height="24" viewBox="0 0 24 24" fill="none" xmlns="http://www.w3.org/2000/svg">
<path d="M21.5762 17.457L17.002 12.8828C16.0996 11.9805 14.752 11.8047 13.666 12.3398L9.50195 8.17578V5.75L4.50195 2L2.00195 4.5L5.75195 9.5H8.17773L12.3418 13.6641C11.8105 14.75 11.9824 16.0977 12.8848 17L17.459 21.5742C18.0293 22.1445 18.9512 22.1445 19.5176 21.5742L21.5762 19.5156C22.1426 18.9453 22.1426 18.0234 21.5762 17.457ZM14.959 10.7891C16.0645 10.7891 17.1035 11.2188 17.8848 12L18.6426 12.7578C19.2598 12.4883 19.8457 12.1133 20.3535 11.6055C21.8027 10.1562 22.2949 8.11719 21.834 6.26562C21.748 5.91406 21.3066 5.79297 21.0488 6.05078L18.1426 8.95703L15.4902 8.51562L15.0488 5.86328L17.9551 2.95703C18.2129 2.69922 18.0879 2.25781 17.7324 2.16797C15.8809 1.71094 13.8418 2.20312 12.3965 3.64844C11.2832 4.76172 10.7598 6.23047 10.7871 7.69531L13.9941 10.9023C14.3105 10.8281 14.6387 10.7891 14.959 10.7891ZM10.9004 13.9922L8.68555 11.7773L2.73242 17.7344C1.75586 18.7109 1.75586 20.293 2.73242 21.2695C3.70898 22.2461 5.29102 22.2461 6.26758 21.2695L11.0957 16.4414C10.7988 15.6641 10.709 14.8164 10.9004 13.9922ZM4.50195 20.4375C3.98633 20.4375 3.56445 20.0156 3.56445 19.5C3.56445 18.9805 3.98242 18.5625 4.50195 18.5625C5.02148 18.5625 5.43945 18.9805 5.43945 19.5C5.43945 20.0156 5.02148 20.4375 4.50195 20.4375Z" stroke="#656F83"/>
</svg>
